<svg width="96" height="96" viewBox="0 0 96 96" fill="none" xmlns="http://www.w3.org/2000/svg">
<g clip-path="url(#clip0_1_2)">
<path d="M35.8809 69.4209C35.6693 69.4209 33.3988 68.5664 29.0693 66.8574C24.7399 65.1647 22.1032 64.1312 21.1592 63.7568C19.9222 63.236 19.0921 62.9023 18.6689 62.7559C15.9346 61.6491 13.8838 59.875 12.5166 57.4336C11.1657 54.9759 10.4902 51.8102 10.4902 47.9365C10.4902 42.8421 11.6296 38.9684 13.9082 36.3154C16.1868 33.6624 19.499 32.3359 23.8447 32.3359C28.2067 32.3359 31.527 33.6706 33.8057 36.3398C36.1006 38.9928 37.248 42.8584 37.248 47.9365C37.248 52.0381 36.4993 55.3503 35.002 57.873C33.5208 60.3796 31.3643 62.0153 28.5322 62.7803V62.9512L37.0771 65.6611C37.484 65.7751 37.6875 65.9867 37.6875 66.2959C37.6875 66.5075 37.598 66.8737 37.4189 67.3945C37.2399 67.9154 37.012 68.3792 36.7354 68.7861C36.4587 69.2093 36.1738 69.4209 35.8809 69.4209ZM23.8447 60.0947C26.8721 60.0947 29.2077 59.0531 30.8516 56.9697C32.4954 54.8701 33.3174 51.859 33.3174 47.9365C33.3174 45.3161 32.943 43.0863 32.1943 41.2471C31.4619 39.4079 30.3877 38.0163 28.9717 37.0723C27.5557 36.112 25.8467 35.6318 23.8447 35.6318C21.859 35.6318 20.1582 36.112 18.7422 37.0723C17.3424 38.0163 16.2682 39.4079 15.5195 41.2471C14.7871 43.0863 14.4209 45.3161 14.4209 47.9365C14.4209 51.8753 15.2347 54.8864 16.8623 56.9697C18.5062 59.0531 20.8337 60.0947 23.8447 60.0947ZM42.1309 63.0732C41.4798 63.0732 41.0078 63.0163 40.7148 62.9023C40.4219 62.7721 40.2754 62.585 40.2754 62.3408C40.2754 62.2269 40.3161 62.0316 40.3975 61.7549L50.6758 33.2148C50.8385 32.7428 51.4163 32.5068 52.4092 32.5068H53.6787C54.6715 32.5068 55.2493 32.7428 55.4121 33.2148L65.6904 61.7793C65.7718 61.9583 65.8125 62.1455 65.8125 62.3408C65.8125 62.8291 65.2021 63.0732 63.9814 63.0732H63.6152C62.6061 63.0732 62.0202 62.8454 61.8574 62.3896L59.3184 55.2607H46.5742L44.084 62.3896C43.9375 62.8454 43.3597 63.0732 42.3506 63.0732H42.1309ZM58.1465 51.9648L53.6055 39.0498C53.4753 38.6917 53.3695 38.2848 53.2881 37.8291C53.2067 37.3734 53.1335 36.9339 53.0684 36.5107H52.9707C52.7754 37.6012 52.5557 38.4476 52.3115 39.0498L47.7705 51.9648H58.1465ZM74.1377 54.2109C73.2588 54.2109 72.8193 53.8773 72.8193 53.21C72.8193 52.2334 73.1449 51.1429 73.7959 49.9385C74.4469 48.7178 75.3665 47.5133 76.5547 46.3252C77.5475 45.3324 78.3044 44.543 78.8252 43.957C79.346 43.3711 79.7855 42.7526 80.1436 42.1016C80.5016 41.4342 80.6807 40.7588 80.6807 40.0752C80.6807 37.0641 78.8577 35.5586 75.2119 35.5586C74.3981 35.5586 73.6576 35.6644 72.9902 35.876C72.3229 36.0713 71.6149 36.3398 70.8662 36.6816C70.3454 36.9258 70.0036 37.0479 69.8408 37.0479C69.6943 37.0479 69.5072 36.9095 69.2793 36.6328C69.0677 36.3398 68.8724 36.0143 68.6934 35.6562C68.5143 35.2982 68.4248 35.0215 68.4248 34.8262C68.4248 34.3542 68.8154 33.931 69.5967 33.5566C70.3779 33.166 71.3464 32.8649 72.502 32.6533C73.6738 32.4417 74.805 32.3359 75.8955 32.3359C77.751 32.3359 79.3542 32.6696 80.7051 33.3369C82.056 33.988 83.0732 34.875 83.7568 35.998C84.4567 37.1048 84.8066 38.3174 84.8066 39.6357C84.8066 40.6123 84.6032 41.5319 84.1963 42.3945C83.7894 43.2572 83.2848 44.0384 82.6826 44.7383C82.0967 45.4219 81.3073 46.2601 80.3145 47.2529C79.4681 48.083 78.7845 48.791 78.2637 49.377C77.7591 49.9466 77.3115 50.5732 76.9209 51.2568C76.5465 51.9404 76.3105 52.6484 76.2129 53.3809C76.1803 53.6576 76.0501 53.8691 75.8223 54.0156C75.6107 54.1458 75.2607 54.2109 74.7725 54.2109H74.1377ZM74.0156 63.0732C73.3971 63.0732 72.9495 63 72.6729 62.8535C72.3962 62.6908 72.2578 62.4466 72.2578 62.1211V59.2646C72.2578 58.6299 72.8438 58.3125 74.0156 58.3125H74.7236C75.8792 58.3125 76.457 58.6299 76.457 59.2646V62.1211C76.457 62.4466 76.3187 62.6908 76.042 62.8535C75.7653 63 75.3258 63.0732 74.7236 63.0732H74.0156Z" fill="#0016A7"/>
</g>
<defs>
<clipPath id="clip0_1_2">
<rect width="96" height="96" fill="white"/>
</clipPath>
</defs>
</svg>
